<svg width="24" height="24" viewBox="0 0 24 24" fill="none" xmlns="http://www.w3.org/2000/svg">
<g clip-path="url(#clip0_1332_24800)">
<path d="M17.0858 2.61441C18.3901 2.61816 19.6398 3.11875 20.562 4.00685C21.4843 4.89494 22.0041 6.09838 22.008 7.35434V16.8332C22.0041 18.0892 21.4843 19.2926 20.562 20.1807C19.6398 21.0688 18.3901 21.5693 17.0858 21.573H7.24236C5.9381 21.5693 4.68838 21.0688 3.76612 20.1807C2.84387 19.2926 2.32403 18.0892 2.32013 16.8332V7.35434C2.32403 6.09838 2.84387 4.89494 3.76612 4.00685C4.68838 3.11875 5.9381 2.61816 7.24236 2.61441H17.0858ZM17.0858 0.71875H7.24236C3.45234 0.71875 0.351562 3.70469 0.351562 7.35434V16.8332C0.351562 20.4829 3.45234 23.4688 7.24236 23.4688H17.0858C20.8758 23.4688 23.9766 20.4829 23.9766 16.8332V7.35434C23.9766 3.70469 20.8758 0.71875 17.0858 0.71875Z" fill="white"/>
<path d="M18.5624 7.35449C18.2703 7.35449 17.9848 7.2711 17.742 7.11486C17.4992 6.95863 17.31 6.73656 17.1982 6.47675C17.0864 6.21693 17.0572 5.93104 17.1142 5.65522C17.1711 5.37941 17.3118 5.12605 17.5183 4.9272C17.7248 4.72835 17.9879 4.59293 18.2743 4.53806C18.5607 4.4832 18.8576 4.51136 19.1274 4.61898C19.3972 4.72659 19.6278 4.90884 19.7901 5.14267C19.9523 5.37649 20.0389 5.6514 20.0389 5.93262C20.0393 6.11945 20.0014 6.30453 19.9274 6.47722C19.8533 6.64991 19.7446 6.80682 19.6074 6.93893C19.4702 7.07104 19.3072 7.17576 19.1279 7.24708C18.9486 7.31839 18.7564 7.35489 18.5624 7.35449ZM12.1641 8.30207C12.9429 8.30207 13.7042 8.52446 14.3518 8.94111C14.9993 9.35776 15.504 9.94997 15.802 10.6428C16.1001 11.3358 16.178 12.0982 16.0261 12.8337C15.8742 13.5693 15.4992 14.2449 14.9485 14.7752C14.3978 15.3055 13.6961 15.6666 12.9323 15.8129C12.1685 15.9592 11.3767 15.8842 10.6572 15.5972C9.93766 15.3102 9.32268 14.8242 8.89 14.2006C8.45733 13.577 8.22639 12.8439 8.22639 12.094C8.2275 11.0886 8.64272 10.1247 9.38094 9.41386C10.1191 8.70299 11.1201 8.30315 12.1641 8.30207ZM12.1641 6.40641C10.996 6.40641 9.854 6.73997 8.88273 7.36492C7.91145 7.98987 7.15443 8.87814 6.7074 9.91739C6.26037 10.9567 6.14341 12.1003 6.3713 13.2035C6.59919 14.3068 7.16171 15.3202 7.98771 16.1156C8.81372 16.911 9.86611 17.4527 11.0118 17.6722C12.1575 17.8916 13.3451 17.779 14.4243 17.3485C15.5035 16.918 16.426 16.1891 17.075 15.2538C17.724 14.3185 18.0703 13.2188 18.0703 12.094C18.0703 10.5855 17.4481 9.13885 16.3404 8.07224C15.2328 7.00562 13.7305 6.40641 12.1641 6.40641Z" fill="white"/>
</g>
<defs>
<clipPath id="clip0_1332_24800">
<rect width="24" height="23" fill="white" transform="translate(0 0.71875)"/>
</clipPath>
</defs>
</svg>
