<svg width="26" height="22" viewBox="0 0 26 22" fill="none" xmlns="http://www.w3.org/2000/svg">
<g clip-path="url(#clip0_1332_24807)">
<path d="M25.8204 3.11817C24.8708 3.53074 23.8662 3.80255 22.8382 3.92501C23.9186 3.2924 24.731 2.28738 25.1232 1.09845C24.1018 1.69571 22.9862 2.11478 21.8241 2.3377C21.3348 1.82488 20.7463 1.41691 20.0944 1.1386C19.4425 0.86029 18.7408 0.717449 18.032 0.718759C15.1622 0.718759 12.8398 3.00743 12.8398 5.82872C12.8377 6.22115 12.8827 6.61241 12.9737 6.99415C10.9159 6.89768 8.90076 6.37272 7.05741 5.45286C5.21406 4.533 3.58301 3.23849 2.26861 1.65216C1.80749 2.42952 1.56362 3.31648 1.5625 4.22032C1.5625 5.99219 2.48693 7.55841 3.88281 8.47598C3.05579 8.45636 2.24572 8.23747 1.52136 7.8379V7.90118C1.52136 10.3797 3.31433 12.4416 5.68738 12.9109C5.24113 13.0299 4.78128 13.0902 4.31945 13.0903C3.99175 13.0909 3.66479 13.059 3.34334 12.9953C4.00304 15.0255 5.9231 16.5021 8.19754 16.5443C6.3494 17.9686 4.08036 18.7384 1.74707 18.7328C1.3329 18.7322 0.919122 18.7076 0.507812 18.659C2.88148 20.1747 5.64068 20.9764 8.45699 20.9688C18.0209 20.9688 23.2459 13.1799 23.2459 6.42462C23.2459 6.20313 23.2401 5.98165 23.2295 5.76544C24.2436 5.04406 25.121 4.14761 25.8204 3.11817Z" fill="white"/>
</g>
<defs>
<clipPath id="clip0_1332_24807">
<rect width="26" height="21" fill="white" transform="translate(0 0.71875)"/>
</clipPath>
</defs>
</svg>
