<svg width="24" height="24" viewBox="0 0 24 24" fill="none" xmlns="http://www.w3.org/2000/svg">
<g clip-path="url(#clip0_1332_24804)">
<path fill-rule="evenodd" clip-rule="evenodd" d="M23.9766 12.0938C23.9766 5.81211 18.6873 0.71875 12.1641 0.71875C5.64082 0.71875 0.351562 5.81211 0.351562 12.0938C0.351562 17.771 4.67051 22.477 10.3184 23.3312V15.3828H7.3183V12.0938H10.3184V9.5877C10.3184 6.73734 12.0824 5.1616 14.7803 5.1616C16.0728 5.1616 17.4249 5.38402 17.4249 5.38402V8.18359H15.9346C14.4681 8.18359 14.0093 9.06008 14.0093 9.96094V12.0938H17.2851L16.762 15.3828H14.0098V23.3321C19.6577 22.4785 23.9766 17.7726 23.9766 12.0938Z" fill="white"/>
</g>
<defs>
<clipPath id="clip0_1332_24804">
<rect width="24" height="23" fill="white" transform="translate(0 0.71875)"/>
</clipPath>
</defs>
</svg>
