<svg width="25" height="25" viewBox="0 0 25 25" fill="none" xmlns="http://www.w3.org/2000/svg">
<g clip-path="url(#clip0_1332_24810)">
<path d="M12.6668 0.21875C6.03847 0.21875 0.664062 5.59076 0.664062 12.2161C0.664062 17.1274 3.62186 21.3479 7.84959 23.2064C7.81744 22.3709 7.84423 21.3641 8.05857 20.4536C8.28898 19.4788 9.60177 13.9139 9.60177 13.9139C9.60177 13.9139 9.21597 13.1481 9.21597 12.018C9.21597 10.2398 10.2448 8.91145 11.5308 8.91145C12.6239 8.91145 13.149 9.73091 13.149 10.7111C13.149 11.8091 12.4471 13.448 12.0881 14.9691C11.788 16.2438 12.7257 17.2775 13.9849 17.2775C16.2569 17.2775 17.7894 14.3584 17.7894 10.8986C17.7894 8.26874 16.0157 6.30311 12.7954 6.30311C9.15703 6.30311 6.88509 9.01857 6.88509 12.05C6.88509 13.0944 7.19587 13.8335 7.67813 14.4012C7.89782 14.6637 7.92997 14.7709 7.84959 15.0708C7.79065 15.2904 7.66205 15.8207 7.60311 16.0349C7.52273 16.3402 7.27625 16.4472 7.00297 16.3347C5.32582 15.6492 4.5435 13.8175 4.5435 11.7501C4.5435 8.34372 7.42092 4.25713 13.1222 4.25713C17.7036 4.25713 20.7204 7.57246 20.7204 11.1288C20.7204 15.8366 18.1001 19.3501 14.2421 19.3501C12.9454 19.3501 11.7291 18.6486 11.3111 17.8559C11.3111 17.8559 10.6145 20.6195 10.4645 21.1551C10.2126 22.0817 9.71429 23.0029 9.25884 23.726C10.3637 24.0517 11.5095 24.2177 12.6614 24.2188C19.2897 24.2188 24.6641 18.8467 24.6641 12.2214C24.6641 5.59612 19.295 0.21875 12.6668 0.21875Z" fill="white"/>
</g>
<defs>
<clipPath id="clip0_1332_24810">
<rect width="25" height="24" fill="white" transform="translate(0 0.21875)"/>
</clipPath>
</defs>
</svg>
