<svg width="32" height="32" viewBox="0 0 32 32" fill="none" xmlns="http://www.w3.org/2000/svg">
<g clip-path="url(#clip0_1333_24849)">
<path d="M5.49169 6.74363C3.24738 9.25423 1.99209 12.4876 1.95406 15.8476C1.86529 23.5315 8.14178 29.8334 15.8129 29.8587C23.4842 29.8714 29.6719 23.6584 29.6719 15.9998C29.6719 8.45537 23.6363 2.30573 16.1299 2.1409C16.0919 2.1409 16.0412 2.1409 16.0031 2.16626C15.9651 2.17894 15.9271 2.2043 15.9017 2.22966C15.8764 2.25502 15.851 2.29306 15.8257 2.33109C15.8129 2.36913 15.8003 2.40717 15.8003 2.45789V8.49342" stroke="white" stroke-width="2.2049" stroke-linecap="round" stroke-linejoin="round"/>
<path d="M14.1932 17.6229L8.48735 9.46982C8.39859 9.35574 8.3732 9.21626 8.38586 9.07678C8.39859 8.93731 8.4493 8.8105 8.55073 8.70907C8.65215 8.60764 8.77897 8.55693 8.91844 8.54421C9.04526 8.53154 9.18473 8.56959 9.29882 8.64569L17.4519 14.3515C17.9464 14.7066 18.2887 15.2518 18.3902 15.8604C18.4916 16.4691 18.3521 17.0903 17.9971 17.5975C17.642 18.1047 17.1095 18.4471 16.5009 18.5612C15.8923 18.6753 15.271 18.5358 14.7638 18.1935C14.5482 18.0413 14.3453 17.8512 14.1932 17.6229Z" fill="white"/>
</g>
<defs>
<clipPath id="clip0_1333_24849">
<rect width="30.8686" height="30.8686" fill="white" transform="translate(0.375 0.565674)"/>
</clipPath>
</defs>
</svg>
