<svg width="60" height="61" viewBox="0 0 60 61" fill="none" xmlns="http://www.w3.org/2000/svg">
<path d="M3.75 4.58472H56.25V57.0847H3.75V4.58472Z" fill="#F5DE19"/>
<path d="M39.0166 45.6003C39.464 46.509 40.1589 47.2727 41.0215 47.8035C41.884 48.3342 42.8789 48.6105 43.8916 48.6003C45.9354 48.6003 47.2423 47.5785 47.2423 46.1628C47.2423 44.4753 45.8998 43.8716 43.6498 42.8872L42.416 42.3585C38.8535 40.8416 36.491 38.9422 36.491 34.926C36.491 31.2266 39.3035 28.4085 43.7154 28.4085C45.1436 28.3053 46.5705 28.625 47.8183 29.3275C49.066 30.0301 50.0792 31.0844 50.7316 32.3591L46.8748 34.8247C46.6236 34.1927 46.1861 33.652 45.6206 33.2742C45.055 32.8965 44.3879 32.6996 43.7079 32.7097C43.4112 32.68 43.1116 32.7124 42.8281 32.8049C42.5446 32.8974 42.2835 33.048 42.0614 33.2469C41.8394 33.4459 41.6612 33.689 41.5382 33.9606C41.4152 34.2323 41.3502 34.5266 41.3473 34.8247C41.3473 36.3041 42.2641 36.9041 44.381 37.8247L45.6148 38.3535C49.8073 40.1516 52.1773 41.9835 52.1773 46.1028C52.1773 50.5447 48.6879 52.9785 44.0023 52.9785C42.1766 53.0948 40.3562 52.6803 38.7609 51.785C37.1656 50.8897 35.8635 49.5518 35.0116 47.9328L39.0166 45.6003ZM21.5885 46.0278C22.3629 47.4022 23.0679 48.5647 24.7629 48.5647C26.3829 48.5647 27.4066 47.931 27.4066 45.4653V28.6897H32.3398V45.531C32.3398 50.6385 29.3398 52.9635 24.9729 52.9635C23.4293 53.0478 21.8963 52.6632 20.5754 51.86C19.2545 51.0568 18.2076 49.8728 17.5723 48.4635L21.5885 46.0278Z" fill="black"/>
</svg>
