<svg width="60" height="61" viewBox="0 0 60 61" fill="none" xmlns="http://www.w3.org/2000/svg">
<g clip-path="url(#clip0_1763_9290)">
<path d="M51.6275 35.3703C49.5402 35.3847 47.7259 36.055 46.2069 37.0459C45.6493 35.574 45.092 34.2628 44.9938 33.3009C44.8843 32.179 44.7533 31.494 44.8843 30.1534C45.0156 28.8128 45.6057 26.9037 45.5947 26.7581C45.5839 26.6125 45.4634 25.9275 44.2613 25.9131C43.0592 25.8984 42.0209 26.219 41.9007 26.6415C41.7805 27.064 41.551 28.0259 41.398 29.0165C41.1903 30.474 38.9938 35.6759 37.737 38.4009C37.3325 37.3375 36.9828 36.4047 36.9062 35.6615C36.797 34.5397 36.6657 33.8547 36.797 32.514C36.9282 31.1734 37.5184 29.2647 37.5073 29.1187C37.4963 28.9731 37.3761 28.2881 36.174 28.2737C34.9716 28.259 33.9334 28.5797 33.8134 29.0022C33.6931 29.425 33.5619 30.4156 33.3106 31.3775C33.0591 32.3393 30.1412 41.0243 29.3762 43.2681C29.067 44.1763 28.7427 45.0751 28.4035 45.964C28.4035 45.964 28.3925 46.0078 28.3597 46.0806C28.2531 46.3593 28.1439 46.6362 28.032 46.9112V46.9256C27.868 47.3193 27.6931 47.6834 27.6057 47.6834C27.5401 47.6834 27.4198 46.6343 27.6275 45.2062C28.0646 42.19 29.1029 37.4978 29.0921 37.3375C29.0921 37.25 29.2888 36.434 28.4145 36.0112C27.5619 35.5887 27.256 36.2881 27.1794 36.2881C27.103 36.2881 27.0481 36.5359 27.0481 36.5359C27.0481 36.5359 27.9992 31.2609 25.2341 31.2609C23.5074 31.2609 21.1248 33.7818 19.9445 36.055C18.6027 37.0285 17.2621 38.0049 15.9226 38.984C15.2781 39.465 14.6113 39.9459 13.9883 40.3975C13.9445 40.3393 13.9009 40.2662 13.857 40.2081C10.5127 35.4431 4.32711 32.0768 4.58938 25.68C4.68782 23.3484 5.28876 17.2281 16.4691 9.79653C25.6712 3.74903 32.9938 5.42466 34.2615 9.14059C36.0756 14.445 30.3381 24.2956 20.8297 25.7234C17.2013 26.2628 15.2996 24.3975 14.8189 23.6981C14.3162 22.9693 14.2395 22.9256 14.0537 23.0715C13.7478 23.2903 13.9445 23.9459 14.0537 24.3247C14.338 25.3153 15.5073 27.064 17.4854 27.924C19.2341 28.6815 23.4854 29.1043 28.633 26.4522C34.3925 23.4793 38.8953 15.2172 37.573 8.29559C36.2504 1.27184 27.5073 -1.04503 19.2341 2.87466C14.3162 5.20653 8.98274 8.87841 5.14672 13.6581C0.589302 19.3409 -0.132104 24.2809 0.162974 26.3503C1.22329 33.6943 8.81891 38.474 11.8571 42.015C11.7041 42.1315 11.5618 42.2337 11.4418 42.3212C9.92258 43.3265 4.13024 47.3628 2.68766 51.6325C1.04844 56.4703 2.95016 59.9387 4.20688 60.4047C8.10852 61.8475 12.1194 59.2537 14.2723 54.9693C16.4253 50.6853 16.1631 45.1187 15.1686 42.5687C15.1576 42.5397 15.1468 42.5103 15.1248 42.4812C15.5183 42.1753 15.9226 41.8547 16.3161 41.5487C17.0394 40.9787 17.7718 40.4296 18.5129 39.9018C18.1412 41.2572 17.8679 42.8747 17.7369 45.2062C17.5728 47.9459 18.4142 51.5012 19.5181 52.9C20.0101 53.5125 20.5892 53.5268 20.9609 53.5268C22.2505 53.5268 22.8298 52.0987 23.4746 50.4084C24.2614 48.3393 24.9718 45.935 24.9718 45.935C24.9718 45.935 24.0866 52.434 26.491 52.434C27.3652 52.434 28.2505 50.9184 28.644 50.1462V50.1606C28.644 50.1606 28.6658 50.1168 28.7096 50.015C28.797 49.8256 28.8516 49.7087 28.8516 49.7087V49.68C29.2013 48.8637 29.9884 47.0131 31.1577 43.9384C32.6659 39.975 34.1195 35.0206 34.1195 35.0206C34.1195 35.0206 34.2507 36.23 34.6986 38.2409C34.9611 39.4212 35.5072 40.7181 35.9445 41.9712C35.5949 42.6272 35.3762 42.9912 35.3762 42.9912L35.3872 43.0059C35.1029 43.5012 34.797 44.0403 34.4581 44.5653C33.2668 46.4593 31.8463 48.6309 31.6494 49.2572C31.4197 50.0003 31.4745 50.5397 31.9119 50.9768C32.2288 51.2975 32.7969 51.3409 33.3763 51.2975C34.4473 51.1953 35.2013 50.8456 35.5728 50.6272C36.1522 50.3503 36.8298 49.9275 37.4635 49.3009C38.6331 48.1497 39.3432 46.5031 39.2778 44.3322C39.245 43.1372 38.9499 41.9422 38.5892 40.82C38.6987 40.6162 38.7969 40.4122 38.9063 40.2081C40.7532 36.6087 42.185 32.6597 42.185 32.6597C42.185 32.6597 42.3163 33.869 42.7641 35.8803C42.9828 36.9003 43.4309 38.0078 43.8242 39.0859C42.0866 40.9659 41.0155 43.1515 40.633 44.5797C39.9446 47.2318 40.4799 48.4265 41.4964 48.7034C41.9553 48.8347 42.6111 48.5431 43.092 48.2662C43.704 48.004 44.4254 47.5525 45.114 46.8818C46.2835 45.7309 47.409 44.1278 47.3434 41.9568C47.3106 40.9659 47.1139 39.9893 46.8406 39.0422C48.316 38.2265 50.2177 37.7747 52.6438 38.1534C57.8462 38.9693 58.8734 43.2972 58.6766 45.119C58.4799 46.9403 57.387 47.9312 57.0266 48.2372C56.6656 48.5434 56.5456 48.6453 56.5784 48.8637C56.622 49.1843 56.7969 49.17 57.103 49.1115C57.5293 49.0097 59.8353 47.6397 59.9335 44.2881C60.0976 40.004 57.0374 35.3265 51.6275 35.3703V35.3703ZM11.4964 53.4103C9.76954 55.9165 7.36532 56.8637 6.32704 56.0625C5.21235 55.2025 5.64946 51.5012 7.76961 48.8493C9.05915 47.2318 10.7204 45.7306 11.8243 44.8128C12.0756 44.6087 12.4473 44.3175 12.8954 43.9531C12.9718 43.8947 13.0156 43.8656 13.0156 43.8656L13.2779 43.6468C14.0537 47.4356 13.3107 50.7728 11.4964 53.4103V53.4103ZM24.0648 42.015C23.4636 43.9678 22.2069 48.9659 21.4419 48.689C20.7861 48.4559 20.3816 44.6672 21.3106 40.9222C21.7806 39.0422 22.775 36.7981 23.3544 35.924C24.2942 34.525 25.3325 34.0584 25.5838 34.6272C25.9009 35.3703 24.4363 40.7909 24.0648 42.015V42.015ZM34.4363 48.6306C34.1849 48.8056 33.9446 48.9222 33.8352 48.8347C33.7588 48.7762 33.9446 48.5431 33.9446 48.5431C33.9446 48.5431 35.2452 46.6781 35.7587 45.8328C36.054 45.3375 36.4034 44.7547 36.7752 44.0987V44.2881C36.7752 46.5178 35.1575 48.0187 34.4361 48.6306H34.4363ZM42.4363 46.1972C42.2504 46.0222 42.2832 45.4393 42.9062 43.6178C43.1466 42.9037 43.7148 41.709 44.6877 40.5578C44.7969 41.024 44.8735 41.4759 44.8625 41.8984C44.8515 44.7109 43.3435 45.76 42.4363 46.1972Z" fill="#CD6799"/>
</g>
<defs>
<clipPath id="clip0_1763_9290">
<rect width="60" height="60" fill="white" transform="translate(0 0.834717)"/>
</clipPath>
</defs>
</svg>
