<svg width="60" height="61" viewBox="0 0 60 61" fill="none" xmlns="http://www.w3.org/2000/svg">
<path d="M11.0667 51.8366L6.85547 4.58472H53.1455L48.9286 51.8291L29.9723 57.0847L11.0667 51.8366Z" fill="#1572B6"/>
<path d="M30 53.0685L45.3188 48.8216L48.9225 8.4491H30V53.0685Z" fill="#33A9DC"/>
<path d="M30 25.5679H37.6688L38.1975 19.6335H30V13.8379H44.5312L44.3925 15.3923L42.9694 31.3635H30V25.5679V25.5679Z" fill="white"/>
<path d="M30.0348 40.6185L30.0086 40.626L23.5548 38.8823L23.1423 34.2604H17.3242L18.1361 43.3598L30.0067 46.656L30.0348 46.6485V40.6185V40.6185Z" fill="#EBEBEB"/>
<path d="M37.1763 31.1178L36.4788 38.8784L30.0156 40.6222V46.6522L41.8956 43.3597L41.9838 42.3809L42.9906 31.1178H37.1763V31.1178Z" fill="white"/>
<path d="M30.0201 13.8379V19.6335H16.0213L15.9051 18.3304L15.6407 15.3923L15.502 13.8379H30.0201V13.8379ZM29.9995 25.5679V31.3635H23.6263L23.5101 30.0604L23.2476 27.1223L23.1088 25.5679H29.9995V25.5679Z" fill="#EBEBEB"/>
</svg>
