<svg width="60" height="61" viewBox="0 0 60 61" fill="none" xmlns="http://www.w3.org/2000/svg">
<path d="M30 35.4735C32.5888 35.4735 34.6875 33.3748 34.6875 30.786C34.6875 28.1972 32.5888 26.0985 30 26.0985C27.4112 26.0985 25.3125 28.1972 25.3125 30.786C25.3125 33.3748 27.4112 35.4735 30 35.4735Z" fill="#00D8FF"/>
<path d="M30 41.5335C24.3659 41.6698 18.7459 40.9103 13.35 39.2835C10.8574 38.4933 8.53263 37.2486 6.49313 35.6122C5.71487 35.0532 5.06676 34.3324 4.59327 33.4994C4.11977 32.6663 3.83211 31.7407 3.75 30.786C3.75 27.6866 7.155 24.6491 12.8587 22.6616C18.3989 20.9005 24.1874 20.047 30 20.1341C35.7351 20.054 41.446 20.8921 46.9162 22.6166C49.3168 23.3819 51.5627 24.5665 53.55 26.1154C54.315 26.6483 54.9533 27.343 55.4199 28.1501C55.8865 28.9572 56.1699 29.8571 56.25 30.786C56.25 34.0072 52.4438 37.2716 46.3125 39.3004C41.0211 40.8742 35.5197 41.6273 30 41.5335V41.5335ZM30 22.3766C24.439 22.3023 18.9015 23.1137 13.5956 24.7804C8.34562 26.6122 5.9925 29.1172 5.9925 30.7804C5.9925 32.5204 8.52188 35.256 14.0756 37.1554C19.2376 38.7038 24.6124 39.4246 30 39.291C35.2808 39.3854 40.5449 38.6709 45.6094 37.1722C51.375 35.2616 54 32.5222 54 30.786C53.9054 30.1902 53.6883 29.6204 53.3623 29.1128C53.0364 28.6051 52.6087 28.1706 52.1063 27.8366C50.3283 26.4625 48.3219 25.4127 46.1794 24.7354C40.9463 23.0924 35.4843 22.2961 30 22.3766V22.3766Z" fill="#00D8FF"/>
<path d="M19.3493 54.1654C18.4746 54.1854 17.6102 53.9732 16.8443 53.5504C14.1593 52.0016 13.2293 47.5354 14.3561 41.601C15.5986 35.9218 17.7514 30.4809 20.7311 25.4891C23.5263 20.4812 27.1046 15.9527 31.3305 12.0754C33.1927 10.3779 35.3409 9.02387 37.6755 8.07598C38.5199 7.68024 39.4411 7.4751 40.3736 7.4751C41.3062 7.4751 42.2273 7.68024 43.0718 8.07598C45.8636 9.68473 46.788 14.6122 45.4849 20.9366C44.2041 26.3077 42.1072 31.4505 39.2674 36.186C36.5706 41.1348 33.105 45.6238 28.9999 49.4854C27.0701 51.2493 24.8305 52.6409 22.3943 53.5897C21.4189 53.9517 20.3894 54.1463 19.3493 54.1654V54.1654ZM22.6736 26.6029C19.8313 31.3828 17.768 36.5848 16.5611 42.0135C15.5243 47.4791 16.5199 50.766 17.9674 51.6022C19.4674 52.4704 23.1086 51.6472 27.5299 47.7847C31.4487 44.0853 34.7566 39.7882 37.3305 35.0535C40.051 30.5263 42.0624 25.6094 43.2949 20.4735C44.5211 14.5204 43.4618 10.8754 41.958 10.0091C41.3944 9.79315 40.7921 9.69648 40.1893 9.72521C39.5864 9.75393 38.996 9.90742 38.4555 10.176C36.3774 11.0335 34.4669 12.2509 32.8118 13.7722C28.7743 17.4862 25.3562 21.8215 22.6868 26.6141L22.6736 26.6029Z" fill="#00D8FF"/>
<path d="M40.6446 54.1897C38.104 54.1897 34.8771 52.6522 31.5171 49.7628C27.2171 45.8502 23.5783 41.2679 20.7415 36.1934C17.7991 31.2703 15.6633 25.9082 14.4152 20.3103C13.8739 17.8475 13.7736 15.3082 14.119 12.8103C14.1988 11.8837 14.481 10.9859 14.9455 10.1802C15.4101 9.37446 16.0458 8.68049 16.8077 8.14718C19.5958 6.5328 24.3265 8.19218 29.1546 12.4784C33.1682 16.27 36.5766 20.6547 39.2608 25.4797C42.2014 30.2878 44.3595 35.5325 45.6546 41.0178C46.2192 43.571 46.3063 46.2067 45.9115 48.7916C45.8175 49.7448 45.5185 50.6665 45.035 51.4934C44.5515 52.3203 43.8949 53.0328 43.1102 53.5822C42.3568 53.9998 41.5058 54.2094 40.6446 54.1897V54.1897ZM22.6821 35.0647C25.4035 39.9142 28.8795 44.2997 32.9796 48.0566C37.1965 51.6847 40.5415 52.4647 41.9796 51.6191C43.4796 50.7472 44.5858 47.1884 43.4458 41.4303C42.1968 36.1933 40.1269 31.187 37.3127 26.5972C34.7511 21.9793 31.4978 17.7807 27.6658 14.1472C23.1208 10.1122 19.4346 9.2103 17.9327 10.0803C17.4646 10.4607 17.0805 10.934 16.8045 11.4704C16.5286 12.0068 16.3669 12.5945 16.3296 13.1966C16.0315 15.4242 16.1286 17.687 16.6165 19.8809C17.817 25.2343 19.8653 30.3615 22.684 35.0684L22.6821 35.0647Z" fill="#00D8FF"/>
</svg>
