<svg width="60" height="61" viewBox="0 0 60 61" fill="none" xmlns="http://www.w3.org/2000/svg">
<path d="M11.0666 51.8366L6.85352 4.58472H53.1473L48.9285 51.8291L29.9723 57.0847L11.0666 51.8366Z" fill="#E44F26"/>
<path d="M30 53.0685L45.3188 48.8216L48.9225 8.4491H30V53.0685Z" fill="#F1662A"/>
<path d="M30 25.9728H22.3312L21.8025 20.0384H30V14.2428H15.4688L15.6075 15.799L17.0306 31.7684H30V25.9728V25.9728ZM30 41.0234L29.9738 41.0309L23.52 39.289L23.1075 34.6672H17.2894L18.1013 43.7647L29.9738 47.0609L30 47.0534V41.0234Z" fill="#EBEBEB"/>
<path d="M29.9785 25.9728V31.7684H37.1148L36.4435 39.2853L29.9785 41.029V47.059L41.8604 43.7647L41.9466 42.7859L43.3079 27.529L43.4504 25.9728H29.9785V25.9728ZM29.9785 14.2428V20.0384H43.9773L44.0935 18.7372L44.3579 15.799L44.4966 14.2428H29.9785V14.2428Z" fill="white"/>
</svg>
