<svg width="89" height="55" viewBox="0 0 89 55" fill="none" xmlns="http://www.w3.org/2000/svg">
<path d="M43.5239 54.7231C43.2256 54.7231 42.9471 54.6435 42.6884 54.5043L40.0428 52.9329C39.6449 52.714 39.8439 52.6344 39.9633 52.5947C40.5003 52.4157 40.5998 52.3757 41.1567 52.0577C41.2165 52.0177 41.2962 52.0377 41.3557 52.0775L43.3848 53.2909C43.4643 53.3306 43.5638 53.3306 43.6233 53.2909L51.5604 48.6957C51.64 48.656 51.6799 48.5763 51.6799 48.477V39.3067C51.6799 39.207 51.64 39.1277 51.5604 39.0877L43.6233 34.5126C43.5438 34.4726 43.4443 34.4726 43.3848 34.5126L35.4477 39.0877C35.3682 39.1275 35.3282 39.227 35.3282 39.3065V48.4768C35.3282 48.5565 35.3682 48.6558 35.4477 48.6957L37.616 49.9489C38.7896 50.5456 39.5256 49.8494 39.5256 49.1532V40.1022C39.5256 39.9829 39.6251 39.8635 39.7643 39.8635H40.7788C40.8982 39.8635 41.0175 39.9629 41.0175 40.1022V49.1532C41.0175 50.7246 40.1621 51.6398 38.6702 51.6398C38.2127 51.6398 37.8547 51.6398 36.8401 51.1424L34.7515 49.9489C34.2343 49.6506 33.916 49.0935 33.916 48.4968V39.3265C33.916 38.7297 34.2343 38.1726 34.7515 37.8743L42.6884 33.2792C43.1858 33.0007 43.8622 33.0007 44.3595 33.2792L52.2964 37.8743C52.8136 38.1726 53.132 38.7297 53.132 39.3265V48.4968C53.132 49.0935 52.8136 49.6506 52.2964 49.9489L44.3595 54.5441C44.1008 54.6635 43.8025 54.7231 43.524 54.7231H43.5239ZM45.9706 48.4173C42.4896 48.4173 41.7734 46.8259 41.7734 45.4732C41.7734 45.3538 41.8729 45.2345 42.0122 45.2345H43.0466C43.1659 45.2345 43.2653 45.314 43.2653 45.4335C43.4245 46.4877 43.882 47.0049 45.9906 47.0049C47.6615 47.0049 48.3779 46.6269 48.3779 45.7317C48.3779 45.2145 48.1787 44.8367 45.5729 44.578C43.4046 44.3591 42.0519 43.8818 42.0519 42.1512C42.0519 40.5399 43.4047 39.585 45.6724 39.585C48.2185 39.585 49.4718 40.4604 49.631 42.3698C49.631 42.4297 49.6111 42.4893 49.5713 42.549C49.5314 42.5887 49.4718 42.6285 49.4121 42.6285H48.3777C48.2782 42.6285 48.1787 42.549 48.1589 42.4495C47.9202 41.3555 47.3035 40.9974 45.6724 40.9974C43.8423 40.9974 43.6233 41.634 43.6233 42.1113C43.6233 42.6882 43.882 42.8672 46.3486 43.1855C48.7954 43.5039 49.9493 43.9614 49.9493 45.672C49.9293 47.4226 48.4971 48.4173 45.9706 48.4173Z" fill="#539E43"/>
<path d="M18.8978 18.8573C18.8978 18.4993 18.6988 18.1609 18.3806 17.9819L9.94622 13.1283C9.8068 13.0486 9.64777 13.0088 9.48873 12.9889H9.40904C9.25001 12.9889 9.0908 13.0486 8.95156 13.1283L0.517207 17.9819C0.198794 18.1609 0 18.4992 0 18.8573L0.0199654 31.9066C0.0199654 32.0856 0.119448 32.2646 0.278483 32.3443C0.43769 32.4438 0.636483 32.4438 0.775897 32.3443L5.78876 29.4798C6.10701 29.3008 6.30597 28.9626 6.30597 28.6046V22.4976C6.30597 22.1396 6.50476 21.8014 6.82318 21.6224L8.95156 20.389C9.11077 20.2895 9.28977 20.2496 9.46877 20.2496C9.64777 20.2496 9.82677 20.2895 9.96618 20.389L12.0946 21.6224C12.413 21.8014 12.6118 22.1394 12.6118 22.4976V28.6046C12.6118 28.9626 12.8107 29.3008 13.129 29.4798L18.1418 32.3443C18.3011 32.4438 18.4998 32.4438 18.6591 32.3443C18.8183 32.2646 18.9177 32.0856 18.9177 31.9066L18.8978 18.8573ZM59.4384 0.894484C59.2794 0.814794 59.0804 0.814794 58.941 0.894484C58.782 0.993967 58.6825 1.153 58.6825 1.332V14.2622C58.6825 14.3815 58.6229 14.5007 58.5035 14.5804C58.3842 14.64 58.2647 14.64 58.1455 14.5804L56.0369 13.367C55.8823 13.279 55.7075 13.2327 55.5296 13.2327C55.3517 13.2327 55.1768 13.279 55.0223 13.367L46.5879 18.2406C46.2697 18.4196 46.0707 18.7578 46.0707 19.1158V28.8431C46.0707 29.2011 46.2697 29.5395 46.5879 29.7185L55.0223 34.5921C55.1768 34.6802 55.3517 34.7264 55.5296 34.7264C55.7075 34.7264 55.8823 34.6802 56.0369 34.5921L64.4712 29.7185C64.7895 29.5395 64.9884 29.2013 64.9884 28.8431V4.59445C64.9884 4.21649 64.7895 3.87845 64.4712 3.69928L59.4386 0.894484H59.4384ZM58.6627 25.6406C58.6627 25.7401 58.6229 25.8196 58.5432 25.8593L55.6589 27.5302C55.6186 27.5499 55.5744 27.5601 55.5296 27.5601C55.4847 27.5601 55.4405 27.5499 55.4002 27.5302L52.5159 25.8593C52.4362 25.8196 52.3965 25.7201 52.3965 25.6406V22.2986C52.3965 22.1991 52.4362 22.1196 52.5159 22.0798L55.4002 20.4088C55.4405 20.3891 55.4847 20.3789 55.5296 20.3789C55.5744 20.3789 55.6186 20.3891 55.6589 20.4088L58.5432 22.0798C58.6229 22.1194 58.6627 22.2191 58.6627 22.2986V25.6406ZM87.5065 22.2191C87.8249 22.0401 88.0039 21.7019 88.0039 21.3437V18.9766C88.0039 18.6186 87.8049 18.2804 87.5065 18.1014L79.1319 13.2477C78.9773 13.1597 78.8025 13.1135 78.6246 13.1135C78.4468 13.1135 78.272 13.1597 78.1174 13.2477L69.6831 18.1212C69.3646 18.3002 69.1659 18.6384 69.1659 18.9966V28.7239C69.1659 29.0819 69.3646 29.4201 69.6831 29.5991L78.0577 34.3732C78.3761 34.5522 78.7539 34.5522 79.0523 34.3732L84.1248 31.5488C84.284 31.4691 84.3835 31.2901 84.3835 31.1111C84.3835 30.9321 84.284 30.7531 84.1248 30.6734L75.6507 25.7998C75.4916 25.7005 75.3921 25.5413 75.3921 25.3623V22.3187C75.3921 22.1397 75.4916 21.9607 75.6507 21.8811L78.2964 20.3692C78.3739 20.3205 78.4635 20.2946 78.555 20.2946C78.6465 20.2946 78.7362 20.3205 78.8136 20.3692L81.4592 21.8811C81.6184 21.9805 81.7179 22.1396 81.7179 22.3187V24.7058C81.7179 24.8848 81.8174 25.0638 81.9764 25.1433C82.1356 25.2428 82.3344 25.2428 82.4936 25.1433L87.5065 22.2191V22.2191Z" fill="#333333"/>
<path d="M78.494 21.7617C78.5235 21.7423 78.5581 21.7319 78.5934 21.7319C78.6288 21.7319 78.6633 21.7423 78.6928 21.7617L80.3042 22.6967C80.3639 22.7362 80.4037 22.796 80.4037 22.8757V24.7455C80.4037 24.825 80.3639 24.8848 80.3042 24.9245L78.6928 25.8594C78.6633 25.8789 78.6288 25.8892 78.5934 25.8892C78.5581 25.8892 78.5235 25.8789 78.494 25.8594L76.8827 24.9245C76.823 24.8848 76.7832 24.825 76.7832 24.7455V22.8757C76.7832 22.796 76.823 22.7362 76.8827 22.6967L78.494 21.7617V21.7617Z" fill="#539E43"/>
<path d="M32.9998 13.2873C32.8452 13.1993 32.6704 13.1531 32.4925 13.1531C32.3147 13.1531 32.1399 13.1993 31.9853 13.2873L23.6107 18.1209C23.2923 18.2999 23.1133 18.6381 23.1133 18.9961V28.6838C23.1133 29.0418 23.3122 29.38 23.6107 29.559L31.9853 34.3928C32.1399 34.4808 32.3147 34.5271 32.4925 34.5271C32.6704 34.5271 32.8452 34.4808 32.9998 34.3928L41.3746 29.559C41.6928 29.38 41.872 29.0418 41.872 28.6838V18.9962C41.872 18.6382 41.6729 18.3 41.3746 18.121L32.9998 13.2873Z" fill="url(#paint0_linear_445_14307)"/>
<defs>
<linearGradient id="paint0_linear_445_14307" x1="35.9045" y1="16.8908" x2="26.7251" y2="31.3143" gradientUnits="userSpaceOnUse">
<stop stop-color="#41873F"/>
<stop offset="0.3288" stop-color="#418B3D"/>
<stop offset="0.6352" stop-color="#419637"/>
<stop offset="0.9319" stop-color="#3FA92D"/>
<stop offset="1" stop-color="#3FAE2A"/>
</linearGradient>
</defs>
</svg>
