<svg width="21" height="21" viewBox="0 0 21 21" fill="none" xmlns="http://www.w3.org/2000/svg">
<path d="M6.63802 5.00142C6.6378 5.44345 6.46199 5.86729 6.14928 6.17969C5.83656 6.4921 5.41255 6.66748 4.97052 6.66726C4.52849 6.66704 4.10466 6.49123 3.79225 6.17851C3.47985 5.8658 3.30447 5.44178 3.30469 4.99976C3.30491 4.55773 3.48072 4.13389 3.79343 3.82149C4.10615 3.50909 4.53016 3.3337 4.97219 3.33392C5.41422 3.33414 5.83805 3.50995 6.15046 3.82267C6.46286 4.13539 6.63824 4.5594 6.63802 5.00142V5.00142ZM6.68802 7.90142H3.35469V18.3348H6.68802V7.90142ZM11.9547 7.90142H8.63802V18.3348H11.9214V12.8598C11.9214 9.80976 15.8964 9.52642 15.8964 12.8598V18.3348H19.188V11.7264C19.188 6.58476 13.3047 6.77642 11.9214 9.30142L11.9547 7.90142V7.90142Z" fill="#8C8CA2"/>
</svg>
