<svg width="38" height="39" viewBox="0 0 38 39" fill="none" xmlns="http://www.w3.org/2000/svg">
<path d="M7.71714 28.0483C6.10169 26.3325 5.23438 24.408 5.23438 21.2885C5.23438 15.7991 9.08791 10.8791 14.6918 8.44653L16.0923 10.6078C10.8618 13.4372 9.83917 17.1088 9.43139 19.4237C10.2736 18.9877 11.3762 18.8355 12.4568 18.9359C15.2862 19.1978 17.5164 21.5206 17.5164 24.408C17.5164 25.8639 16.9381 27.2601 15.9086 28.2896C14.8792 29.3191 13.4829 29.8974 12.0271 29.8974C11.222 29.8904 10.4263 29.7233 9.68635 29.4058C8.94642 29.0883 8.27703 28.6269 7.71714 28.0483V28.0483ZM23.401 28.0483C21.7856 26.3325 20.9183 24.408 20.9183 21.2885C20.9183 15.7991 24.7718 10.8791 30.3757 8.44653L31.7762 10.6078C26.5457 13.4372 25.5231 17.1088 25.1153 19.4237C25.9575 18.9877 27.0601 18.8355 28.1407 18.9359C30.9701 19.1978 33.2003 21.5206 33.2003 24.408C33.2003 25.8639 32.622 27.2601 31.5925 28.2896C30.5631 29.3191 29.1668 29.8974 27.711 29.8974C26.9058 29.8904 26.1102 29.7233 25.3702 29.4058C24.6303 29.0883 23.9609 28.6269 23.401 28.0483V28.0483Z" fill="#E1B168"/>
</svg>
