<svg width="60" height="13" viewBox="0 0 60 13" fill="none" xmlns="http://www.w3.org/2000/svg">
<path d="M50.0348 0.781781V2.71382H45.9506V12.8784H43.9084V2.71393H39.7391V0.781781H50.0348ZM50.4939 11.7261C50.6378 11.7261 50.7636 11.7787 50.8702 11.8841C50.9782 11.9894 51.032 12.1155 51.0335 12.2625C51.0333 12.3589 51.0069 12.4534 50.9573 12.5356C50.9087 12.6168 50.8406 12.684 50.7595 12.7311C50.6792 12.7798 50.5874 12.8052 50.4939 12.8045C50.3443 12.8045 50.2171 12.7518 50.1107 12.6465C50.0041 12.5411 49.9513 12.4136 49.9527 12.2625C49.9515 12.1155 50.0041 11.9894 50.1107 11.8841C50.2171 11.7787 50.3443 11.7261 50.4939 11.7261ZM10.0177 12.8784L2.48757 3.36233V12.8734H0.445312V0.776733H2.99796L12.5115 12.7879L12.5116 2.71393L12.5108 0.781781H22.8064V2.71382H14.5538V5.82198H21.1906V7.75413H14.5538V10.9463H22.8065V12.8784H10.0177ZM29.3515 7.7357L30.6899 9.42747L27.9475 12.8927H25.2674L29.3515 7.7357V7.7357ZM27.9475 0.786828L31.4028 5.14976L34.8473 0.800209L37.5199 0.796101L32.7408 6.83929L37.5276 12.8834H34.8473L25.275 0.786828H27.9475ZM53.9794 7.70859H54.8843V11.2534C54.883 11.5791 54.8136 11.8577 54.6782 12.0921C54.5412 12.3262 54.3515 12.5051 54.1081 12.6313C53.8659 12.7559 53.5823 12.8198 53.2598 12.8198C52.9651 12.8198 52.7009 12.7658 52.4657 12.6604C52.2304 12.555 52.0437 12.397 51.9067 12.189C51.7681 11.9811 51.7004 11.7218 51.7004 11.4114H52.6068C52.6082 11.5472 52.6386 11.6649 52.6967 11.7635C52.7539 11.8608 52.8375 11.9392 52.9375 11.9894C53.0412 12.0422 53.1603 12.0685 53.2943 12.0685C53.4398 12.0685 53.5643 12.0379 53.6653 11.9755C53.7662 11.9145 53.8438 11.823 53.8978 11.7011C53.9503 11.5804 53.978 11.4308 53.9794 11.2533V7.70847V7.70859ZM58.6077 9.09482C58.5857 8.88002 58.4888 8.71217 58.32 8.59303C58.1497 8.47236 57.9298 8.41285 57.6599 8.41285C57.4705 8.41285 57.3072 8.44196 57.1715 8.49877C57.036 8.55699 56.9308 8.63458 56.8588 8.73306C56.787 8.83142 56.7509 8.94375 56.7481 9.06993C56.7481 9.17522 56.773 9.26678 56.8214 9.34295C56.8716 9.42282 56.9393 9.48976 57.0192 9.53851C57.1061 9.59403 57.199 9.63913 57.2961 9.6729C57.3984 9.70894 57.5009 9.73946 57.6032 9.76446L58.075 9.8823C58.2647 9.92667 58.4487 9.98618 58.6244 10.0625C58.8 10.1374 58.9592 10.233 59.0989 10.3481C59.2387 10.4631 59.3494 10.6017 59.431 10.7639C59.5127 10.9261 59.5542 11.1161 59.5542 11.3351C59.5542 11.6303 59.4795 11.8896 59.3286 12.1141C59.1779 12.3374 58.9606 12.512 58.6756 12.6382C58.3919 12.763 58.0487 12.8267 57.6447 12.8267C57.2545 12.8267 56.9142 12.7657 56.6276 12.6437C56.3399 12.5232 56.1157 12.3456 55.9538 12.1127C55.7919 11.8798 55.7048 11.5957 55.6923 11.2616H56.5891C56.6014 11.4363 56.6568 11.5818 56.7509 11.6997C56.8463 11.8161 56.9709 11.902 57.1231 11.9602C57.2767 12.0172 57.4482 12.0463 57.6378 12.0463C57.8357 12.0463 58.01 12.0158 58.1608 11.9561C58.3103 11.8965 58.4278 11.8134 58.5123 11.7052C58.5981 11.5984 58.641 11.4723 58.6424 11.3282C58.641 11.1965 58.6021 11.087 58.5274 11.0009C58.4514 10.915 58.3462 10.8429 58.2119 10.7847C58.0765 10.7265 57.9187 10.6738 57.7388 10.6281L57.166 10.4812C56.7522 10.3744 56.4243 10.2123 56.1849 9.99452C55.9442 9.7769 55.8252 9.48862 55.8252 9.12674C55.8252 8.83013 55.9054 8.56944 56.0674 8.34618C56.2278 8.12317 56.4479 7.9498 56.726 7.82644C57.0054 7.70166 57.321 7.64063 57.6723 7.64063C58.0294 7.64063 58.342 7.70166 58.6119 7.82644C58.8816 7.9498 59.0935 8.12164 59.2469 8.34067C59.4006 8.55981 59.4809 8.81065 59.4851 9.09482H58.6077V9.09482Z" fill="black"/>
</svg>
