<svg width="42" height="26" viewBox="0 0 42 26" fill="none" xmlns="http://www.w3.org/2000/svg">
<path fill-rule="evenodd" clip-rule="evenodd" d="M21.0004 0.547974C15.5062 0.547974 12.0732 3.27854 10.699 8.73967C12.7595 6.00911 15.163 4.98535 17.9097 5.66758C19.4769 6.05674 20.5975 7.18708 21.8369 8.43852C23.8569 10.4763 26.1951 12.8347 31.301 12.8347C36.7944 12.8347 40.2282 10.1041 41.6016 4.64382C39.5419 7.37439 37.1384 8.39815 34.3916 7.7151C32.8237 7.32595 31.7031 6.19561 30.4637 4.94498C28.4437 2.90553 26.1063 0.547974 21.0004 0.547974ZM10.699 12.8347C5.20559 12.8347 1.77179 15.5653 0.398438 21.0264C2.45888 18.2958 4.86245 17.2721 7.60836 17.9543C9.17629 18.3435 10.2969 19.4738 11.5363 20.7253C13.5563 22.7631 15.8937 25.1215 21.0004 25.1215C26.4938 25.1215 29.9276 22.3917 31.301 16.9306C29.2405 19.6611 26.837 20.6849 24.0903 20.0027C22.5231 19.6127 21.4025 18.4823 20.1631 17.2317C18.1431 15.1939 15.8049 12.8347 10.699 12.8347V12.8347Z" fill="#38BDF8"/>
</svg>
