<svg width="76" height="77" viewBox="0 0 76 77" fill="none" xmlns="http://www.w3.org/2000/svg">
<path d="M39.6115 5.67261C38.7973 5.67584 38.0166 5.99716 37.436 6.56798L37.4052 6.59173L17.0039 18.3836L37.3482 38.7279V38.7421L61.8107 63.2046L66.4728 54.8066L49.6554 14.4387L41.8179 6.60123C41.5299 6.30997 41.1871 6.07859 40.8092 5.92043C40.4313 5.76227 40.0259 5.68047 39.6163 5.67973L39.6115 5.67261Z" fill="#66C3FA"/>
<path d="M17.0734 18.291L5.28869 38.6709L5.26494 38.7018C4.69324 39.2849 4.37121 40.0678 4.36719 40.8844C4.36764 41.2928 4.44911 41.697 4.60688 42.0737C4.76465 42.4504 4.99558 42.7921 5.28631 43.0789L15.0547 52.8473L53.2542 67.8739L61.8897 63.0764L61.6522 62.8389H61.5928L37.6457 38.8514H37.6172L17.0734 18.291Z" fill="#215896"/>
<path d="M16.9355 18.3195L37.75 39.1553H37.7809L61.7375 63.1428L70.8552 61.4043L70.867 34.4172L61.2388 24.9813C58.8381 22.839 55.8298 21.4975 52.6318 21.1433V21.0388L16.9355 18.3195Z" fill="#235997"/>
<path d="M17.0879 18.4358L37.9119 39.2598V39.2907L61.8804 63.2592L60.1371 72.3768H33.1571L23.726 62.7438C21.5851 60.3418 20.2453 57.3327 19.8928 54.1344H19.7883L17.0879 18.4358Z" fill="#58B6F0"/>
</svg>
