<svg width="59" height="60" viewBox="0 0 59 60" fill="none" xmlns="http://www.w3.org/2000/svg">
<path fill-rule="evenodd" clip-rule="evenodd" d="M33.9408 4.41064C33.5865 4.4156 33.2353 4.47786 32.9009 4.59502C35.8785 6.55308 32.3662 9.38877 34.0071 11.7856C33.8941 10.9794 34.0223 10.1578 34.3757 9.42443C34.7291 8.69105 35.2918 8.07877 35.9929 7.66486C36.5183 7.22789 36.8557 7.07118 36.7433 6.34843C36.5607 5.16474 34.9825 4.41064 33.9408 4.41064ZM38.1814 5.17396C37.7702 7.24449 37.2595 7.32008 35.7421 8.65311C35.1503 9.1197 34.7326 9.77184 34.5564 10.5046C34.3801 11.2373 34.4555 12.0081 34.7704 12.6928C28.5017 10.259 20.4666 8.78771 14.5759 12.9988C12.4574 14.5126 11.1649 16.6863 8.55232 17.5732C6.86345 18.1521 5.20407 17.9806 4.14576 19.6548C3.75871 20.1382 3.55651 20.7437 3.57544 21.3627C3.59436 21.9816 3.83315 22.5736 4.24901 23.0325C4.56429 23.3552 5.17089 23.5617 5.42164 23.8899C5.56729 24.0742 5.56361 24.2586 5.70189 24.5038C5.94627 25.0753 6.29945 25.5938 6.74176 26.0305C7.01279 26.2536 7.94389 26.4711 8.10245 26.709C8.30157 27.0058 7.78532 28.184 8.2186 28.3683C8.50992 28.5029 9.36357 26.9966 9.44654 26.8638C9.27692 28.0494 9.05382 30.1531 10.3869 28.4015C11.0193 27.57 11.058 27.2953 12.1218 27.1109C12.8026 26.9926 13.4907 26.9212 14.1813 26.897C18.1264 26.759 21.9741 28.1395 24.9316 30.754C27.8892 33.3685 29.7312 37.0179 30.0781 40.9501C29.879 40.0282 28.675 38.5532 27.554 38.9035C27.0765 39.051 26.8995 39.8752 26.586 40.3527C26.1898 40.9582 25.7014 41.4981 25.1387 41.9531C25.234 41.0592 25.1892 40.156 25.0059 39.276C24.6704 40.6551 23.9974 42.9432 22.303 42.5726C21.7386 42.4864 21.2097 42.2433 20.7768 41.871C20.3438 41.4987 20.0242 41.0122 19.8545 40.467C19.6351 39.0658 21.1156 37.423 18.7354 37.3068C13.96 37.0727 15.0644 44.0955 17.8835 45.9264C17.2356 45.998 16.6037 46.1743 16.0121 46.4481C17.8029 47.4881 19.8207 48.0748 21.8899 48.157C23.9591 48.2393 26.0171 47.8146 27.8847 46.9201C29.7524 46.0255 31.3732 44.6881 32.606 43.0242C33.8389 41.3603 34.6465 39.4204 34.9585 37.3732C35.3688 39.248 35.3594 41.1904 34.9309 43.0612C34.7018 44.0553 34.359 45.0198 33.9094 45.9356C33.3 47.1725 32.4901 48.3002 31.5125 49.2728C30.9336 49.8462 29.8716 50.4233 29.5065 51.0077C31.7411 50.7115 33.9247 50.111 35.9965 49.223C33.8518 52.1607 30.9955 54.505 27.696 56.0356C31.2337 55.7854 34.6536 54.6584 37.647 52.7565C40.6405 50.8545 43.1134 48.2373 44.8429 45.1409C44.2917 48.2376 43.0675 51.1756 41.2568 53.7476C43.6922 52.1171 45.7643 50.0007 47.3428 47.5312C48.9213 45.0618 49.9722 42.2926 50.4294 39.3976C50.8835 41.5168 51.0134 43.6926 50.8148 45.8508C52.8154 43.0709 54.1669 39.8775 54.7697 36.506C55.3725 33.1344 55.2111 29.6706 54.2976 26.3697C53.5989 23.8037 52.551 21.3457 51.1835 19.0648C50.6554 18.176 50.0774 17.3179 49.4522 16.4946C49.207 16.1756 47.8961 15.0085 47.8961 14.6508C47.885 14.6865 47.8758 14.6865 47.8684 14.6508C47.8684 20.6393 41.4153 24.4836 36.0113 22.8795C38.0661 22.7201 40.0083 21.8768 41.5276 20.4841C43.047 19.0915 44.0558 17.2298 44.393 15.1966C44.6916 13.0635 44.2338 10.8931 43.0991 9.0623C41.9645 7.23148 40.2245 5.85577 38.1814 5.17396V5.17396Z" fill="#EA2845"/>
</svg>
